{
 "cells": [
  {
   "cell_type": "code",
   "execution_count": 1,
   "metadata": {},
   "outputs": [],
   "source": [
    "import cv2\n",
    "import h5py\n",
    "import matplotlib.pyplot as plt\n",
    "import numpy as np\n",
    "import os\n",
    "import pickle\n",
    "import shutil\n",
    "\n",
    "from tqdm import tqdm"
   ]
  },
  {
   "cell_type": "code",
   "execution_count": 2,
   "metadata": {},
   "outputs": [],
   "source": [
    "from tactile_learning.datasets.preprocess import dump_video_to_images, get_closest_id\n",
    "from tactile_learning.utils.visualization import plot_tactile_sensor"
   ]
  },
  {
   "cell_type": "code",
   "execution_count": 3,
   "metadata": {},
   "outputs": [],
   "source": [
    "import decimal\n",
    "\n",
    "# Get the metadata of images and tactile information\n",
    "def get_desired_indices(root, fps, view_num=0): # frames per second from the video to receive\n",
    "    image_metadata_path = os.path.join(root, f'cam_{view_num}_rgb_video.metadata')\n",
    "    tactile_info_path = os.path.join(root, 'touch_sensor_values.h5')\n",
    "\n",
    "    with open(image_metadata_path, 'rb') as f:\n",
    "        image_metadata = pickle.load(f)\n",
    "        image_timestamps_array = np.asarray(image_metadata['timestamps'])\n",
    "        image_timestamps = np.asarray(image_metadata['timestamps']) / 1000.\n",
    "    with h5py.File(tactile_info_path, 'r') as f:\n",
    "        tactile_timestamps = f['timestamps'][()]\n",
    "\n",
    "    image_id, tactile_id = 0, 0\n",
    "    curr_timestamp = tactile_timestamps[0] # These timestamps are in seconds\n",
    "    image_id = get_closest_id(image_id, curr_timestamp, image_timestamps)\n",
    "\n",
    "    tactile_indices, image_indices = [], []\n",
    "    tactile_indices.append(tactile_id)\n",
    "    image_indices.append(image_id)\n",
    "\n",
    "    frame_period = 1. / fps\n",
    "    while(True):\n",
    "        curr_timestamp += frame_period\n",
    "        tactile_id = get_closest_id(tactile_id, curr_timestamp, tactile_timestamps)\n",
    "        image_id = get_closest_id(image_id, curr_timestamp, image_timestamps)\n",
    "\n",
    "        if curr_timestamp > tactile_timestamps[tactile_id] and curr_timestamp > image_timestamps[image_id]:\n",
    "            break\n",
    "\n",
    "        tactile_indices.append(tactile_id)\n",
    "        image_indices.append(image_id)\n",
    "\n",
    "    assert len(tactile_indices) == len(image_indices)\n",
    "    return tactile_indices, image_indices\n"
   ]
  },
  {
   "cell_type": "code",
   "execution_count": 4,
   "metadata": {},
   "outputs": [],
   "source": [
    "\n",
    "def dump_states(root, tactile_indices, image_indices, view_num=0):\n",
    "    # Make directory to dump the visualization\n",
    "    pbar = tqdm(total=len(tactile_indices))\n",
    "\n",
    "    with h5py.File(os.path.join(root, 'touch_sensor_values.h5'), 'r') as f:\n",
    "        all_tactile_values = f['sensor_values'][()]\n",
    "\n",
    "    viz_dir = os.path.join(root, 'visualization')\n",
    "    os.makedirs(viz_dir, exist_ok=True)\n",
    "    \n",
    "    video_path = os.path.join(root, f'cam_{view_num}_rgb_video.avi')\n",
    "    vidcap = cv2.VideoCapture(video_path)\n",
    "    success, image = vidcap.read()\n",
    "    frame_count = int(vidcap.get(cv2.CAP_PROP_FRAME_COUNT))\n",
    "    frame_id = 0\n",
    "    for i in range(len(tactile_indices)):\n",
    "        tactile_id, image_id = tactile_indices[i], image_indices[i]\n",
    "        while frame_id != image_id and success:\n",
    "            # Find the frame that is equal to image_id\n",
    "            success, image = vidcap.read()\n",
    "            frame_id += 1\n",
    "        dump_demo_state(\n",
    "            frame_id = i,\n",
    "            viz_dir = viz_dir,\n",
    "            tactile_values = all_tactile_values[tactile_id,:,:,:],\n",
    "            camera_img = image\n",
    "        )\n",
    "\n",
    "        pbar.update(1)\n",
    "\n",
    "    pbar.close()\n",
    "\n",
    "def dump_demo_state(frame_id, viz_dir, tactile_values, camera_img):\n",
    "    # tactile_values: (15,16,3)\n",
    "    fig, axs = plt.subplots(figsize=(20,20), nrows=4, ncols=4)\n",
    "    for row_id in range(4):\n",
    "        for column_id in range(4):\n",
    "            if row_id + column_id > 0: # The top left axis should stay empty\n",
    "                plot_tactile_sensor(\n",
    "                    ax = axs[column_id][row_id],\n",
    "                    sensor_values = tactile_values[row_id*4 + column_id-1],\n",
    "                    title = f'Sensor {row_id*4+column_id-1}'\n",
    "                )\n",
    "    fig.suptitle('Tactile State')\n",
    "    fig.savefig(os.path.join(viz_dir, 'Tactile State.png'))\n",
    "    fig.clf()\n",
    "    plt.close()\n",
    "\n",
    "    tactile_img = cv2.imread(os.path.join(viz_dir, 'Tactile State.png'))\n",
    "    height_scale = camera_img.shape[0] / tactile_img.shape[0]\n",
    "    tactile_img = cv2.resize(\n",
    "        tactile_img,\n",
    "        (int(tactile_img.shape[1] * height_scale),\n",
    "         int(tactile_img.shape[0] * height_scale))\n",
    "    )\n",
    "    total_img = cv2.hconcat([camera_img, tactile_img])\n",
    "\n",
    "    img_name = 'state_{}.png'.format(str(frame_id).zfill(3))\n",
    "    cv2.imwrite(os.path.join(viz_dir, img_name), total_img)\n",
    "\n"
   ]
  },
  {
   "cell_type": "code",
   "execution_count": 6,
   "metadata": {},
   "outputs": [
    {
     "name": "stdout",
     "output_type": "stream",
     "text": [
      "tactile_indices: [0, 99, 197, 297, 395, 494, 593, 698, 790, 889, 986, 1084, 1183, 1282, 1380, 1478, 1577, 1674, 1773, 1873, 1971, 2068, 2178, 2267], image_indices: [70, 100, 130, 160, 190, 218, 248, 278, 308, 337, 367, 397, 426, 456, 485, 515, 545, 575, 605, 636, 666, 696, 726, 754]\n"
     ]
    },
    {
     "name": "stderr",
     "output_type": "stream",
     "text": [
      "100%|███████████████████████████████████████████████████████| 24/24 [00:26<00:00,  1.09s/it]\n"
     ]
    },
    {
     "name": "stdout",
     "output_type": "stream",
     "text": [
      "tactile_indices: [0, 99, 198, 296, 397, 492, 592, 698, 788, 888, 986, 1084, 1180, 1278, 1376, 1476, 1574, 1672, 1771, 1870, 1968, 2072, 2169, 2264, 2362, 2462, 2561, 2659, 2758, 2855, 2953, 3053, 3150, 3248, 3347, 3446, 3544, 3644, 3741, 3838, 3938, 4035, 4134, 4232, 4329, 4428, 4527, 4625, 4722, 4828, 4922, 5024, 5120, 5216, 5314, 5413, 5510, 5609, 5707, 5806, 5904, 6002, 6101, 6198, 6296, 6398, 6493, 6595, 6691, 6791, 6888, 6988, 7088, 7183, 7282, 7381, 7478, 7577, 7676, 7774, 7872, 7972, 8069, 8168, 8266, 8364, 8462, 8561, 8660, 8757, 8855, 8953, 9052, 9151, 9249, 9349, 9451, 9545, 9643, 9742, 9840, 9938, 10036, 10135, 10233, 10331, 10431, 10528, 10628, 10734, 10828, 10923, 11021, 11119, 11221, 11317, 11415, 11513, 11611, 11709, 11808, 11905, 12004], image_indices: [71, 100, 130, 160, 190, 220, 250, 280, 309, 339, 369, 399, 429, 459, 489, 519, 548, 578, 608, 638, 668, 698, 727, 757, 787, 817, 846, 876, 906, 936, 966, 996, 1024, 1054, 1083, 1113, 1143, 1173, 1203, 1233, 1263, 1292, 1322, 1352, 1382, 1412, 1441, 1471, 1501, 1531, 1561, 1591, 1621, 1651, 1680, 1710, 1740, 1770, 1800, 1830, 1860, 1888, 1918, 1949, 1979, 2009, 2039, 2069, 2099, 2129, 2159, 2189, 2219, 2249, 2279, 2308, 2338, 2368, 2398, 2428, 2458, 2488, 2517, 2546, 2576, 2605, 2635, 2665, 2695, 2724, 2754, 2784, 2814, 2844, 2874, 2904, 2934, 2964, 2993, 3023, 3053, 3083, 3113, 3143, 3173, 3202, 3231, 3261, 3291, 3321, 3351, 3381, 3411, 3441, 3471, 3501, 3530, 3560, 3590, 3620, 3650, 3679, 3708]\n"
     ]
    },
    {
     "name": "stderr",
     "output_type": "stream",
     "text": [
      "100%|█████████████████████████████████████████████████████| 123/123 [02:14<00:00,  1.09s/it]\n"
     ]
    },
    {
     "name": "stdout",
     "output_type": "stream",
     "text": [
      "tactile_indices: [0, 88, 186, 285, 383, 481, 579, 677, 775, 874, 974, 1071, 1170, 1278, 1375, 1466, 1573, 1663, 1762, 1860, 1959, 2055, 2155, 2253, 2351, 2454, 2547, 2648, 2751, 2849, 2944, 3048, 3140, 3237, 3336, 3434, 3533, 3631, 3730, 3828, 3927, 4025, 4122, 4221, 4319, 4419, 4518, 4619, 4716, 4813, 4914, 5010, 5108, 5206, 5304, 5402, 5501, 5599, 5698, 5796, 5895, 5994, 6091, 6188, 6287, 6385, 6484, 6583, 6681, 6780, 6879, 6976, 7074, 7175, 7270, 7372, 7468, 7566, 7666, 7764, 7862, 7961, 8059, 8158, 8256, 8355, 8454, 8553, 8651, 8750, 8848, 8947, 9044, 9143, 9241, 9339, 9438, 9536, 9634, 9734, 9831, 9930, 10028, 10128, 10225, 10323, 10422, 10520, 10619, 10718, 10816, 10913, 11011, 11109, 11208, 11306, 11405, 11503, 11604, 11701, 11800, 11903, 11997, 12095, 12193, 12291, 12390, 12488, 12587, 12685, 12784, 12883, 12981, 13079, 13187, 13281, 13376, 13473, 13572, 13669, 13768, 13866, 13964, 14063, 14161, 14260, 14357, 14456, 14555, 14659, 14762, 14859, 14955, 15049, 15147, 15246, 15344, 15443, 15541, 15640, 15736, 15834, 15933, 16033, 16134, 16230, 16328, 16426, 16529, 16622, 16720, 16820, 16916, 17014, 17113, 17211, 17309, 17407, 17505, 17605, 17703, 17802, 17900, 17998, 18096, 18194, 18292, 18391, 18489, 18588, 18687, 18785, 18884, 18982, 19080, 19184, 19279, 19376, 19473, 19572, 19670, 19768, 19867, 19965, 20064, 20162, 20261], image_indices: [78, 107, 137, 167, 197, 227, 257, 287, 317, 346, 375, 405, 435, 465, 495, 525, 555, 585, 615, 645, 675, 704, 733, 762, 791, 821, 851, 880, 910, 940, 970, 1000, 1030, 1060, 1089, 1118, 1148, 1177, 1207, 1235, 1265, 1295, 1325, 1355, 1385, 1415, 1445, 1475, 1505, 1535, 1564, 1594, 1623, 1652, 1681, 1710, 1740, 1770, 1800, 1830, 1859, 1888, 1917, 1947, 1977, 2006, 2036, 2066, 2096, 2126, 2156, 2184, 2214, 2244, 2272, 2302, 2332, 2362, 2392, 2422, 2451, 2481, 2511, 2541, 2570, 2600, 2629, 2659, 2688, 2717, 2747, 2777, 2807, 2837, 2866, 2895, 2925, 2955, 2985, 3015, 3045, 3075, 3105, 3134, 3164, 3194, 3223, 3253, 3282, 3312, 3342, 3372, 3402, 3432, 3462, 3492, 3522, 3552, 3582, 3611, 3641, 3671, 3701, 3731, 3761, 3791, 3821, 3851, 3881, 3910, 3940, 3969, 3999, 4029, 4058, 4088, 4118, 4148, 4178, 4208, 4238, 4268, 4298, 4328, 4357, 4387, 4417, 4447, 4476, 4506, 4536, 4566, 4596, 4626, 4654, 4684, 4714, 4744, 4774, 4803, 4833, 4863, 4893, 4922, 4951, 4981, 5011, 5041, 5071, 5101, 5131, 5161, 5190, 5220, 5250, 5280, 5310, 5340, 5370, 5400, 5430, 5460, 5490, 5520, 5549, 5579, 5609, 5639, 5668, 5698, 5728, 5758, 5788, 5818, 5848, 5878, 5908, 5938, 5968, 5998, 6028, 6058, 6088, 6118, 6148, 6178, 6208]\n"
     ]
    },
    {
     "name": "stderr",
     "output_type": "stream",
     "text": [
      "100%|█████████████████████████████████████████████████████| 207/207 [03:56<00:00,  1.14s/it]\n"
     ]
    },
    {
     "ename": "KeyError",
     "evalue": "\"Unable to open object (object 'timestamps' doesn't exist)\"",
     "output_type": "error",
     "traceback": [
      "\u001b[0;31m---------------------------------------------------------------------------\u001b[0m",
      "\u001b[0;31mKeyError\u001b[0m                                  Traceback (most recent call last)",
      "Cell \u001b[0;32mIn [6], line 15\u001b[0m\n\u001b[1;32m     12\u001b[0m view_num\u001b[38;5;241m=\u001b[39m\u001b[38;5;241m0\u001b[39m\n\u001b[1;32m     13\u001b[0m \u001b[38;5;28;01mfor\u001b[39;00m root \u001b[38;5;129;01min\u001b[39;00m roots:\n\u001b[1;32m     14\u001b[0m     \u001b[38;5;66;03m# print('root: {}'.format(root))\u001b[39;00m\n\u001b[0;32m---> 15\u001b[0m     tactile_indices, image_indices \u001b[38;5;241m=\u001b[39m \u001b[43mget_desired_indices\u001b[49m\u001b[43m(\u001b[49m\u001b[43mroot\u001b[49m\u001b[38;5;241;43m=\u001b[39;49m\u001b[43mroot\u001b[49m\u001b[43m,\u001b[49m\u001b[43m \u001b[49m\u001b[43mfps\u001b[49m\u001b[38;5;241;43m=\u001b[39;49m\u001b[43mretrieval_fps\u001b[49m\u001b[43m,\u001b[49m\u001b[43m \u001b[49m\u001b[43mview_num\u001b[49m\u001b[38;5;241;43m=\u001b[39;49m\u001b[43mview_num\u001b[49m\u001b[43m)\u001b[49m\n\u001b[1;32m     16\u001b[0m     \u001b[38;5;28mprint\u001b[39m(\u001b[38;5;124m'\u001b[39m\u001b[38;5;124mtactile_indices: \u001b[39m\u001b[38;5;132;01m{}\u001b[39;00m\u001b[38;5;124m, image_indices: \u001b[39m\u001b[38;5;132;01m{}\u001b[39;00m\u001b[38;5;124m'\u001b[39m\u001b[38;5;241m.\u001b[39mformat(tactile_indices, image_indices))\n\u001b[1;32m     17\u001b[0m     dump_states(root, tactile_indices, image_indices, view_num\u001b[38;5;241m=\u001b[39mview_num)\n",
      "Cell \u001b[0;32mIn [3], line 13\u001b[0m, in \u001b[0;36mget_desired_indices\u001b[0;34m(root, fps, view_num)\u001b[0m\n\u001b[1;32m     11\u001b[0m     image_timestamps \u001b[38;5;241m=\u001b[39m np\u001b[38;5;241m.\u001b[39masarray(image_metadata[\u001b[38;5;124m'\u001b[39m\u001b[38;5;124mtimestamps\u001b[39m\u001b[38;5;124m'\u001b[39m]) \u001b[38;5;241m/\u001b[39m \u001b[38;5;241m1000.\u001b[39m\n\u001b[1;32m     12\u001b[0m \u001b[38;5;28;01mwith\u001b[39;00m h5py\u001b[38;5;241m.\u001b[39mFile(tactile_info_path, \u001b[38;5;124m'\u001b[39m\u001b[38;5;124mr\u001b[39m\u001b[38;5;124m'\u001b[39m) \u001b[38;5;28;01mas\u001b[39;00m f:\n\u001b[0;32m---> 13\u001b[0m     tactile_timestamps \u001b[38;5;241m=\u001b[39m \u001b[43mf\u001b[49m\u001b[43m[\u001b[49m\u001b[38;5;124;43m'\u001b[39;49m\u001b[38;5;124;43mtimestamps\u001b[39;49m\u001b[38;5;124;43m'\u001b[39;49m\u001b[43m]\u001b[49m[()]\n\u001b[1;32m     15\u001b[0m image_id, tactile_id \u001b[38;5;241m=\u001b[39m \u001b[38;5;241m0\u001b[39m, \u001b[38;5;241m0\u001b[39m\n\u001b[1;32m     16\u001b[0m curr_timestamp \u001b[38;5;241m=\u001b[39m tactile_timestamps[\u001b[38;5;241m0\u001b[39m] \u001b[38;5;66;03m# These timestamps are in seconds\u001b[39;00m\n",
      "File \u001b[0;32mh5py/_objects.pyx:54\u001b[0m, in \u001b[0;36mh5py._objects.with_phil.wrapper\u001b[0;34m()\u001b[0m\n",
      "File \u001b[0;32mh5py/_objects.pyx:55\u001b[0m, in \u001b[0;36mh5py._objects.with_phil.wrapper\u001b[0;34m()\u001b[0m\n",
      "File \u001b[0;32m~/miniconda3/envs/tactile_learning/lib/python3.9/site-packages/h5py/_hl/group.py:328\u001b[0m, in \u001b[0;36mGroup.__getitem__\u001b[0;34m(self, name)\u001b[0m\n\u001b[1;32m    326\u001b[0m         \u001b[38;5;28;01mraise\u001b[39;00m \u001b[38;5;167;01mValueError\u001b[39;00m(\u001b[38;5;124m\"\u001b[39m\u001b[38;5;124mInvalid HDF5 object reference\u001b[39m\u001b[38;5;124m\"\u001b[39m)\n\u001b[1;32m    327\u001b[0m \u001b[38;5;28;01melif\u001b[39;00m \u001b[38;5;28misinstance\u001b[39m(name, (\u001b[38;5;28mbytes\u001b[39m, \u001b[38;5;28mstr\u001b[39m)):\n\u001b[0;32m--> 328\u001b[0m     oid \u001b[38;5;241m=\u001b[39m \u001b[43mh5o\u001b[49m\u001b[38;5;241;43m.\u001b[39;49m\u001b[43mopen\u001b[49m\u001b[43m(\u001b[49m\u001b[38;5;28;43mself\u001b[39;49m\u001b[38;5;241;43m.\u001b[39;49m\u001b[43mid\u001b[49m\u001b[43m,\u001b[49m\u001b[43m \u001b[49m\u001b[38;5;28;43mself\u001b[39;49m\u001b[38;5;241;43m.\u001b[39;49m\u001b[43m_e\u001b[49m\u001b[43m(\u001b[49m\u001b[43mname\u001b[49m\u001b[43m)\u001b[49m\u001b[43m,\u001b[49m\u001b[43m \u001b[49m\u001b[43mlapl\u001b[49m\u001b[38;5;241;43m=\u001b[39;49m\u001b[38;5;28;43mself\u001b[39;49m\u001b[38;5;241;43m.\u001b[39;49m\u001b[43m_lapl\u001b[49m\u001b[43m)\u001b[49m\n\u001b[1;32m    329\u001b[0m \u001b[38;5;28;01melse\u001b[39;00m:\n\u001b[1;32m    330\u001b[0m     \u001b[38;5;28;01mraise\u001b[39;00m \u001b[38;5;167;01mTypeError\u001b[39;00m(\u001b[38;5;124m\"\u001b[39m\u001b[38;5;124mAccessing a group is done with bytes or str, \u001b[39m\u001b[38;5;124m\"\u001b[39m\n\u001b[1;32m    331\u001b[0m                     \u001b[38;5;124m\"\u001b[39m\u001b[38;5;124m not \u001b[39m\u001b[38;5;132;01m{}\u001b[39;00m\u001b[38;5;124m\"\u001b[39m\u001b[38;5;241m.\u001b[39mformat(\u001b[38;5;28mtype\u001b[39m(name)))\n",
      "File \u001b[0;32mh5py/_objects.pyx:54\u001b[0m, in \u001b[0;36mh5py._objects.with_phil.wrapper\u001b[0;34m()\u001b[0m\n",
      "File \u001b[0;32mh5py/_objects.pyx:55\u001b[0m, in \u001b[0;36mh5py._objects.with_phil.wrapper\u001b[0;34m()\u001b[0m\n",
      "File \u001b[0;32mh5py/h5o.pyx:190\u001b[0m, in \u001b[0;36mh5py.h5o.open\u001b[0;34m()\u001b[0m\n",
      "\u001b[0;31mKeyError\u001b[0m: \"Unable to open object (object 'timestamps' doesn't exist)\""
     ]
    }
   ],
   "source": [
    "import glob\n",
    "# roots = [\n",
    "#     '/home/irmak/Workspace/Holo-Bot/extracted_data/bowl_picking/eval/demonstration_7',\n",
    "#     '/home/irmak/Workspace/Holo-Bot/extracted_data/bowl_picking/eval/demonstration_9',\n",
    "#     '/home/irmak/Workspace/Holo-Bot/extracted_data/bowl_picking/eval/demonstration_15',\n",
    "# ]\n",
    "# data_path = '/home/irmak/Workspace/Holo-Bot/extracted_data/tofu_picking/eval'\n",
    "data_path = '/data/tactile_learning/deployment_data/data/bowl_picking/demonstrations/image_generalization'\n",
    "roots = glob.glob(f'{data_path}/demonstration_*')\n",
    "\n",
    "retrieval_fps = 1\n",
    "view_num=0\n",
    "for root in roots:\n",
    "    # print('root: {}'.format(root))\n",
    "    tactile_indices, image_indices = get_desired_indices(root=root, fps=retrieval_fps, view_num=view_num)\n",
    "    print('tactile_indices: {}, image_indices: {}'.format(tactile_indices, image_indices))\n",
    "    dump_states(root, tactile_indices, image_indices, view_num=view_num)\n"
   ]
  },
  {
   "cell_type": "code",
   "execution_count": 7,
   "metadata": {},
   "outputs": [
    {
     "name": "stdout",
     "output_type": "stream",
     "text": [
      "['/home/irmak/Workspace/Holo-Bot/extracted_data/tofu_picking/eval/demonstration_large', '/home/irmak/Workspace/Holo-Bot/extracted_data/tofu_picking/eval/demonstration_largest_size', '/home/irmak/Workspace/Holo-Bot/extracted_data/tofu_picking/eval/demonstration_raspberry_whole', '/home/irmak/Workspace/Holo-Bot/extracted_data/tofu_picking/eval/demonstration_small_mid_size', '/home/irmak/Workspace/Holo-Bot/extracted_data/tofu_picking/eval/demonstration_small_size', '/home/irmak/Workspace/Holo-Bot/extracted_data/tofu_picking/eval/demonstration_mid_size', '/home/irmak/Workspace/Holo-Bot/extracted_data/tofu_picking/eval/demonstration_smallest_size', '/home/irmak/Workspace/Holo-Bot/extracted_data/tofu_picking/eval/demonstration_large_mid_size']\n"
     ]
    }
   ],
   "source": [
    "print(roots)"
   ]
  },
  {
   "cell_type": "code",
   "execution_count": 8,
   "metadata": {},
   "outputs": [
    {
     "name": "stdout",
     "output_type": "stream",
     "text": [
      "dumping video in root: /home/irmak/Workspace/Holo-Bot/extracted_data/tofu_picking/eval/demonstration_large\n"
     ]
    },
    {
     "name": "stderr",
     "output_type": "stream",
     "text": [
      "ffmpeg version 5.1.2 Copyright (c) 2000-2022 the FFmpeg developers\n",
      "  built with gcc 10.4.0 (conda-forge gcc 10.4.0-18)\n",
      "  configuration: --prefix=/home/irmak/miniconda3/envs/tactile_learning --cc=/home/conda/feedstock_root/build_artifacts/ffmpeg_1666357487580/_build_env/bin/x86_64-conda-linux-gnu-cc --cxx=/home/conda/feedstock_root/build_artifacts/ffmpeg_1666357487580/_build_env/bin/x86_64-conda-linux-gnu-c++ --nm=/home/conda/feedstock_root/build_artifacts/ffmpeg_1666357487580/_build_env/bin/x86_64-conda-linux-gnu-nm --ar=/home/conda/feedstock_root/build_artifacts/ffmpeg_1666357487580/_build_env/bin/x86_64-conda-linux-gnu-ar --disable-doc --disable-openssl --enable-demuxer=dash --enable-hardcoded-tables --enable-libfreetype --enable-libfontconfig --enable-libopenh264 --enable-gnutls --enable-libmp3lame --enable-libvpx --enable-pthreads --enable-vaapi --enable-gpl --enable-libx264 --enable-libx265 --enable-libaom --enable-libsvtav1 --enable-libxml2 --enable-pic --enable-shared --disable-static --enable-version3 --enable-zlib --pkg-config=/home/conda/feedstock_root/build_artifacts/ffmpeg_1666357487580/_build_env/bin/pkg-config\n",
      "  libavutil      57. 28.100 / 57. 28.100\n",
      "  libavcodec     59. 37.100 / 59. 37.100\n",
      "  libavformat    59. 27.100 / 59. 27.100\n",
      "  libavdevice    59.  7.100 / 59.  7.100\n",
      "  libavfilter     8. 44.100 /  8. 44.100\n",
      "  libswscale      6.  7.100 /  6.  7.100\n",
      "  libswresample   4.  7.100 /  4.  7.100\n",
      "  libpostproc    56.  6.100 / 56.  6.100\n",
      "[image2 @ 0x56173eb02640] Pattern type 'glob_sequence' is deprecated: use pattern_type 'glob' instead\n",
      "Input #0, image2, from '/home/irmak/Workspace/Holo-Bot/extracted_data/tofu_picking/eval/demonstration_large/visualization/%*.png':\n",
      "  Duration: 00:00:07.68, start: 0.000000, bitrate: N/A\n",
      "  Stream #0:0: Video: png, rgba(pc), 2000x2000 [SAR 3937:3937 DAR 1:1], 25 fps, 25 tbr, 25 tbn\n",
      "Stream mapping:\n",
      "  Stream #0:0 -> #0:0 (png (native) -> h264 (libx264))\n",
      "Press [q] to stop, [?] for help\n",
      "[libx264 @ 0x56173eb0eec0] using SAR=1/1\n",
      "[libx264 @ 0x56173eb0eec0] using cpu capabilities: MMX2 SSE2Fast SSSE3 SSE4.2 AVX FMA3 BMI2 AVX2\n",
      "[libx264 @ 0x56173eb0eec0] profile High 4:4:4 Predictive, level 4.0, 4:4:4, 8-bit\n",
      "[libx264 @ 0x56173eb0eec0] 264 - core 164 r3095 baee400 - H.264/MPEG-4 AVC codec - Copyleft 2003-2022 - http://www.videolan.org/x264.html - options: cabac=1 ref=3 deblock=1:0:0 analyse=0x3:0x113 me=hex subme=7 psy=1 psy_rd=1.00:0.00 mixed_ref=1 me_range=16 chroma_me=1 trellis=1 8x8dct=1 cqm=0 deadzone=21,11 fast_pskip=1 chroma_qp_offset=4 threads=22 lookahead_threads=3 sliced_threads=0 nr=0 decimate=1 interlaced=0 bluray_compat=0 constrained_intra=0 bframes=3 b_pyramid=2 b_adapt=1 b_bias=0 direct=1 weightb=1 open_gop=0 weightp=2 keyint=250 keyint_min=10 scenecut=40 intra_refresh=0 rc_lookahead=40 rc=crf mbtree=1 crf=23.0 qcomp=0.60 qpmin=0 qpmax=69 qpstep=4 ip_ratio=1.40 aq=1:1.00\n",
      "Output #0, mp4, to '/home/irmak/Workspace/Holo-Bot/extracted_data/tofu_picking/eval/demonstration_large/visualization_0.mp4':\n",
      "  Metadata:\n",
      "    encoder         : Lavf59.27.100\n",
      "  Stream #0:0: Video: h264 (avc1 / 0x31637661), yuv444p(tv, progressive), 2000x720 [SAR 1:1 DAR 25:9], q=2-31, 10 fps, 10240 tbn\n",
      "    Metadata:\n",
      "      encoder         : Lavc59.37.100 libx264\n",
      "    Side data:\n",
      "      cpb: bitrate max/min/avg: 0/0/0 buffer size: 0 vbv_delay: N/A\n",
      "frame=  192 fps=105 q=-1.0 Lsize=    4797kB time=00:00:18.90 bitrate=2079.2kbits/s speed=10.3x    \n",
      "video:4794kB audio:0kB subtitle:0kB other streams:0kB global headers:0kB muxing overhead: 0.065777%\n",
      "[libx264 @ 0x56173eb0eec0] frame I:1     Avg QP:23.00  size: 51840\n",
      "[libx264 @ 0x56173eb0eec0] frame P:49    Avg QP:20.25  size: 42044\n",
      "[libx264 @ 0x56173eb0eec0] frame B:142   Avg QP:21.83  size: 19692\n",
      "[libx264 @ 0x56173eb0eec0] consecutive B-frames:  1.0%  0.0%  3.1% 95.8%\n",
      "[libx264 @ 0x56173eb0eec0] mb I  I16..4: 27.5% 43.8% 28.6%\n",
      "[libx264 @ 0x56173eb0eec0] mb P  I16..4:  2.7% 23.9%  0.6%  P16..4: 22.5% 10.8%  6.0%  0.0%  0.0%    skip:33.6%\n",
      "[libx264 @ 0x56173eb0eec0] mb B  I16..4:  0.9% 11.1%  0.2%  B16..8: 23.6%  5.0%  1.2%  direct: 4.6%  skip:53.4%  L0:46.7% L1:45.9% BI: 7.4%\n",
      "[libx264 @ 0x56173eb0eec0] 8x8 transform intra:88.5% inter:85.8%\n",
      "[libx264 @ 0x56173eb0eec0] coded y,u,v intra: 71.4% 37.6% 31.4% inter: 19.6% 12.7% 10.6%\n",
      "[libx264 @ 0x56173eb0eec0] i16 v,h,dc,p: 26% 28% 23% 22%\n",
      "[libx264 @ 0x56173eb0eec0] i8 v,h,dc,ddl,ddr,vr,hd,vl,hu: 13% 22% 49%  3%  2%  2%  3%  3%  4%\n",
      "[libx264 @ 0x56173eb0eec0] i4 v,h,dc,ddl,ddr,vr,hd,vl,hu: 30% 29% 15%  4%  5%  4%  5%  4%  4%\n",
      "[libx264 @ 0x56173eb0eec0] Weighted P-Frames: Y:0.0% UV:0.0%\n",
      "[libx264 @ 0x56173eb0eec0] ref P L0: 38.0% 10.8% 32.1% 19.1%\n",
      "[libx264 @ 0x56173eb0eec0] ref B L0: 68.7% 24.5%  6.7%\n",
      "[libx264 @ 0x56173eb0eec0] ref B L1: 88.3% 11.7%\n",
      "[libx264 @ 0x56173eb0eec0] kb/s:2045.13\n",
      "ffmpeg version 5.1.2 Copyright (c) 2000-2022 the FFmpeg developers\n",
      "  built with gcc 10.4.0 (conda-forge gcc 10.4.0-18)\n",
      "  configuration: --prefix=/home/irmak/miniconda3/envs/tactile_learning --cc=/home/conda/feedstock_root/build_artifacts/ffmpeg_1666357487580/_build_env/bin/x86_64-conda-linux-gnu-cc --cxx=/home/conda/feedstock_root/build_artifacts/ffmpeg_1666357487580/_build_env/bin/x86_64-conda-linux-gnu-c++ --nm=/home/conda/feedstock_root/build_artifacts/ffmpeg_1666357487580/_build_env/bin/x86_64-conda-linux-gnu-nm --ar=/home/conda/feedstock_root/build_artifacts/ffmpeg_1666357487580/_build_env/bin/x86_64-conda-linux-gnu-ar --disable-doc --disable-openssl --enable-demuxer=dash --enable-hardcoded-tables --enable-libfreetype --enable-libfontconfig --enable-libopenh264 --enable-gnutls --enable-libmp3lame --enable-libvpx --enable-pthreads --enable-vaapi --enable-gpl --enable-libx264 --enable-libx265 --enable-libaom --enable-libsvtav1 --enable-libxml2 --enable-pic --enable-shared --disable-static --enable-version3 --enable-zlib --pkg-config=/home/conda/feedstock_root/build_artifacts/ffmpeg_1666357487580/_build_env/bin/pkg-config\n",
      "  libavutil      57. 28.100 / 57. 28.100\n",
      "  libavcodec     59. 37.100 / 59. 37.100\n",
      "  libavformat    59. 27.100 / 59. 27.100\n",
      "  libavdevice    59.  7.100 / 59.  7.100\n",
      "  libavfilter     8. 44.100 /  8. 44.100\n",
      "  libswscale      6.  7.100 /  6.  7.100\n",
      "  libswresample   4.  7.100 /  4.  7.100\n",
      "  libpostproc    56.  6.100 / 56.  6.100\n",
      "[image2 @ 0x5559ad732640] Pattern type 'glob_sequence' is deprecated: use pattern_type 'glob' instead\n",
      "Input #0, image2, from '/home/irmak/Workspace/Holo-Bot/extracted_data/tofu_picking/eval/demonstration_largest_size/visualization/%*.png':\n",
      "  Duration: 00:00:03.56, start: 0.000000, bitrate: N/A\n",
      "  Stream #0:0: Video: png, rgba(pc), 2000x2000 [SAR 3937:3937 DAR 1:1], 25 fps, 25 tbr, 25 tbn\n",
      "Stream mapping:\n",
      "  Stream #0:0 -> #0:0 (png (native) -> h264 (libx264))\n",
      "Press [q] to stop, [?] for help\n"
     ]
    },
    {
     "name": "stdout",
     "output_type": "stream",
     "text": [
      "dumping video in root: /home/irmak/Workspace/Holo-Bot/extracted_data/tofu_picking/eval/demonstration_largest_size\n"
     ]
    },
    {
     "name": "stderr",
     "output_type": "stream",
     "text": [
      "[libx264 @ 0x5559ad73c880] using SAR=1/1\n",
      "[libx264 @ 0x5559ad73c880] using cpu capabilities: MMX2 SSE2Fast SSSE3 SSE4.2 AVX FMA3 BMI2 AVX2\n",
      "[libx264 @ 0x5559ad73c880] profile High 4:4:4 Predictive, level 4.0, 4:4:4, 8-bit\n",
      "[libx264 @ 0x5559ad73c880] 264 - core 164 r3095 baee400 - H.264/MPEG-4 AVC codec - Copyleft 2003-2022 - http://www.videolan.org/x264.html - options: cabac=1 ref=3 deblock=1:0:0 analyse=0x3:0x113 me=hex subme=7 psy=1 psy_rd=1.00:0.00 mixed_ref=1 me_range=16 chroma_me=1 trellis=1 8x8dct=1 cqm=0 deadzone=21,11 fast_pskip=1 chroma_qp_offset=4 threads=22 lookahead_threads=3 sliced_threads=0 nr=0 decimate=1 interlaced=0 bluray_compat=0 constrained_intra=0 bframes=3 b_pyramid=2 b_adapt=1 b_bias=0 direct=1 weightb=1 open_gop=0 weightp=2 keyint=250 keyint_min=10 scenecut=40 intra_refresh=0 rc_lookahead=40 rc=crf mbtree=1 crf=23.0 qcomp=0.60 qpmin=0 qpmax=69 qpstep=4 ip_ratio=1.40 aq=1:1.00\n",
      "Output #0, mp4, to '/home/irmak/Workspace/Holo-Bot/extracted_data/tofu_picking/eval/demonstration_largest_size/visualization_0.mp4':\n",
      "  Metadata:\n",
      "    encoder         : Lavf59.27.100\n",
      "  Stream #0:0: Video: h264 (avc1 / 0x31637661), yuv444p(tv, progressive), 2000x720 [SAR 1:1 DAR 25:9], q=2-31, 10 fps, 10240 tbn\n",
      "    Metadata:\n",
      "      encoder         : Lavc59.37.100 libx264\n",
      "    Side data:\n",
      "      cpb: bitrate max/min/avg: 0/0/0 buffer size: 0 vbv_delay: N/A\n",
      "frame=   89 fps= 76 q=-1.0 Lsize=    2194kB time=00:00:08.60 bitrate=2090.1kbits/s speed=7.36x    \n",
      "video:2192kB audio:0kB subtitle:0kB other streams:0kB global headers:0kB muxing overhead: 0.087174%\n",
      "[libx264 @ 0x5559ad73c880] frame I:1     Avg QP:22.82  size: 51638\n",
      "[libx264 @ 0x5559ad73c880] frame P:24    Avg QP:20.31  size: 42300\n",
      "[libx264 @ 0x5559ad73c880] frame B:64    Avg QP:21.74  size: 18397\n",
      "[libx264 @ 0x5559ad73c880] consecutive B-frames:  2.2%  4.5%  3.4% 89.9%\n",
      "[libx264 @ 0x5559ad73c880] mb I  I16..4: 28.3% 43.0% 28.7%\n",
      "[libx264 @ 0x5559ad73c880] mb P  I16..4:  2.6% 25.3%  0.9%  P16..4: 21.5%  9.9%  6.2%  0.0%  0.0%    skip:33.6%\n",
      "[libx264 @ 0x5559ad73c880] mb B  I16..4:  0.7% 10.0%  0.1%  B16..8: 23.5%  4.8%  1.2%  direct: 4.4%  skip:55.2%  L0:46.1% L1:46.3% BI: 7.6%\n",
      "[libx264 @ 0x5559ad73c880] 8x8 transform intra:86.9% inter:85.8%\n",
      "[libx264 @ 0x5559ad73c880] coded y,u,v intra: 70.2% 35.9% 30.0% inter: 18.9% 12.1% 10.0%\n",
      "[libx264 @ 0x5559ad73c880] i16 v,h,dc,p: 30% 31% 20% 19%\n",
      "[libx264 @ 0x5559ad73c880] i8 v,h,dc,ddl,ddr,vr,hd,vl,hu: 14% 22% 48%  3%  2%  2%  3%  3%  4%\n",
      "[libx264 @ 0x5559ad73c880] i4 v,h,dc,ddl,ddr,vr,hd,vl,hu: 34% 32% 13%  3%  3%  3%  4%  3%  4%\n",
      "[libx264 @ 0x5559ad73c880] Weighted P-Frames: Y:0.0% UV:0.0%\n",
      "[libx264 @ 0x5559ad73c880] ref P L0: 34.6% 11.3% 32.9% 21.2%\n",
      "[libx264 @ 0x5559ad73c880] ref B L0: 67.2% 26.4%  6.4%\n",
      "[libx264 @ 0x5559ad73c880] ref B L1: 87.9% 12.1%\n",
      "[libx264 @ 0x5559ad73c880] kb/s:2017.31\n",
      "ffmpeg version 5.1.2 Copyright (c) 2000-2022 the FFmpeg developers\n",
      "  built with gcc 10.4.0 (conda-forge gcc 10.4.0-18)\n",
      "  configuration: --prefix=/home/irmak/miniconda3/envs/tactile_learning --cc=/home/conda/feedstock_root/build_artifacts/ffmpeg_1666357487580/_build_env/bin/x86_64-conda-linux-gnu-cc --cxx=/home/conda/feedstock_root/build_artifacts/ffmpeg_1666357487580/_build_env/bin/x86_64-conda-linux-gnu-c++ --nm=/home/conda/feedstock_root/build_artifacts/ffmpeg_1666357487580/_build_env/bin/x86_64-conda-linux-gnu-nm --ar=/home/conda/feedstock_root/build_artifacts/ffmpeg_1666357487580/_build_env/bin/x86_64-conda-linux-gnu-ar --disable-doc --disable-openssl --enable-demuxer=dash --enable-hardcoded-tables --enable-libfreetype --enable-libfontconfig --enable-libopenh264 --enable-gnutls --enable-libmp3lame --enable-libvpx --enable-pthreads --enable-vaapi --enable-gpl --enable-libx264 --enable-libx265 --enable-libaom --enable-libsvtav1 --enable-libxml2 --enable-pic --enable-shared --disable-static --enable-version3 --enable-zlib --pkg-config=/home/conda/feedstock_root/build_artifacts/ffmpeg_1666357487580/_build_env/bin/pkg-config\n",
      "  libavutil      57. 28.100 / 57. 28.100\n",
      "  libavcodec     59. 37.100 / 59. 37.100\n",
      "  libavformat    59. 27.100 / 59. 27.100\n",
      "  libavdevice    59.  7.100 / 59.  7.100\n",
      "  libavfilter     8. 44.100 /  8. 44.100\n",
      "  libswscale      6.  7.100 /  6.  7.100\n",
      "  libswresample   4.  7.100 /  4.  7.100\n",
      "  libpostproc    56.  6.100 / 56.  6.100\n",
      "[image2 @ 0x55ed295db640] Pattern type 'glob_sequence' is deprecated: use pattern_type 'glob' instead\n",
      "Input #0, image2, from '/home/irmak/Workspace/Holo-Bot/extracted_data/tofu_picking/eval/demonstration_raspberry_whole/visualization/%*.png':\n",
      "  Duration: 00:00:09.88, start: 0.000000, bitrate: N/A\n",
      "  Stream #0:0: Video: png, rgba(pc), 2000x2000 [SAR 3937:3937 DAR 1:1], 25 fps, 25 tbr, 25 tbn\n",
      "Stream mapping:\n",
      "  Stream #0:0 -> #0:0 (png (native) -> h264 (libx264))\n",
      "Press [q] to stop, [?] for help\n"
     ]
    },
    {
     "name": "stdout",
     "output_type": "stream",
     "text": [
      "dumping video in root: /home/irmak/Workspace/Holo-Bot/extracted_data/tofu_picking/eval/demonstration_raspberry_whole\n"
     ]
    },
    {
     "name": "stderr",
     "output_type": "stream",
     "text": [
      "[libx264 @ 0x55ed295eaac0] using SAR=1/1\n",
      "[libx264 @ 0x55ed295eaac0] using cpu capabilities: MMX2 SSE2Fast SSSE3 SSE4.2 AVX FMA3 BMI2 AVX2\n",
      "[libx264 @ 0x55ed295eaac0] profile High 4:4:4 Predictive, level 4.0, 4:4:4, 8-bit\n",
      "[libx264 @ 0x55ed295eaac0] 264 - core 164 r3095 baee400 - H.264/MPEG-4 AVC codec - Copyleft 2003-2022 - http://www.videolan.org/x264.html - options: cabac=1 ref=3 deblock=1:0:0 analyse=0x3:0x113 me=hex subme=7 psy=1 psy_rd=1.00:0.00 mixed_ref=1 me_range=16 chroma_me=1 trellis=1 8x8dct=1 cqm=0 deadzone=21,11 fast_pskip=1 chroma_qp_offset=4 threads=22 lookahead_threads=3 sliced_threads=0 nr=0 decimate=1 interlaced=0 bluray_compat=0 constrained_intra=0 bframes=3 b_pyramid=2 b_adapt=1 b_bias=0 direct=1 weightb=1 open_gop=0 weightp=2 keyint=250 keyint_min=10 scenecut=40 intra_refresh=0 rc_lookahead=40 rc=crf mbtree=1 crf=23.0 qcomp=0.60 qpmin=0 qpmax=69 qpstep=4 ip_ratio=1.40 aq=1:1.00\n",
      "Output #0, mp4, to '/home/irmak/Workspace/Holo-Bot/extracted_data/tofu_picking/eval/demonstration_raspberry_whole/visualization_0.mp4':\n",
      "  Metadata:\n",
      "    encoder         : Lavf59.27.100\n",
      "  Stream #0:0: Video: h264 (avc1 / 0x31637661), yuv444p(tv, progressive), 2000x720 [SAR 1:1 DAR 25:9], q=2-31, 10 fps, 10240 tbn\n",
      "    Metadata:\n",
      "      encoder         : Lavc59.37.100 libx264\n",
      "    Side data:\n",
      "      cpb: bitrate max/min/avg: 0/0/0 buffer size: 0 vbv_delay: N/A\n",
      "frame=  247 fps=116 q=-1.0 Lsize=    5877kB time=00:00:24.40 bitrate=1973.0kbits/s speed=11.5x    \n",
      "video:5873kB audio:0kB subtitle:0kB other streams:0kB global headers:0kB muxing overhead: 0.065199%\n",
      "[libx264 @ 0x55ed295eaac0] frame I:1     Avg QP:22.96  size: 52223\n",
      "[libx264 @ 0x55ed295eaac0] frame P:62    Avg QP:20.18  size: 41850\n",
      "[libx264 @ 0x55ed295eaac0] frame B:184   Avg QP:21.92  size: 18295\n",
      "[libx264 @ 0x55ed295eaac0] consecutive B-frames:  0.4%  0.8%  0.0% 98.8%\n",
      "[libx264 @ 0x55ed295eaac0] mb I  I16..4: 28.0% 43.3% 28.7%\n",
      "[libx264 @ 0x55ed295eaac0] mb P  I16..4:  1.7% 18.9%  0.3%  P16..4: 25.3% 12.5%  7.6%  0.0%  0.0%    skip:33.7%\n",
      "[libx264 @ 0x55ed295eaac0] mb B  I16..4:  0.6%  9.4%  0.1%  B16..8: 25.6%  4.7%  1.1%  direct: 4.3%  skip:54.1%  L0:50.5% L1:42.3% BI: 7.2%\n",
      "[libx264 @ 0x55ed295eaac0] 8x8 transform intra:90.6% inter:86.5%\n",
      "[libx264 @ 0x55ed295eaac0] coded y,u,v intra: 75.0% 39.7% 32.8% inter: 20.0% 12.8% 10.1%\n",
      "[libx264 @ 0x55ed295eaac0] i16 v,h,dc,p: 25% 28% 24% 23%\n",
      "[libx264 @ 0x55ed295eaac0] i8 v,h,dc,ddl,ddr,vr,hd,vl,hu: 11% 21% 54%  3%  2%  2%  2%  2%  4%\n",
      "[libx264 @ 0x55ed295eaac0] i4 v,h,dc,ddl,ddr,vr,hd,vl,hu: 34% 30% 14%  3%  4%  4%  4%  3%  4%\n",
      "[libx264 @ 0x55ed295eaac0] Weighted P-Frames: Y:4.8% UV:0.0%\n",
      "[libx264 @ 0x55ed295eaac0] ref P L0: 33.4%  8.8% 35.1% 21.8%  0.9%\n",
      "[libx264 @ 0x55ed295eaac0] ref B L0: 62.1% 29.6%  8.4%\n",
      "[libx264 @ 0x55ed295eaac0] ref B L1: 86.0% 14.0%\n",
      "[libx264 @ 0x55ed295eaac0] kb/s:1947.58\n",
      "ffmpeg version 5.1.2 Copyright (c) 2000-2022 the FFmpeg developers\n",
      "  built with gcc 10.4.0 (conda-forge gcc 10.4.0-18)\n",
      "  configuration: --prefix=/home/irmak/miniconda3/envs/tactile_learning --cc=/home/conda/feedstock_root/build_artifacts/ffmpeg_1666357487580/_build_env/bin/x86_64-conda-linux-gnu-cc --cxx=/home/conda/feedstock_root/build_artifacts/ffmpeg_1666357487580/_build_env/bin/x86_64-conda-linux-gnu-c++ --nm=/home/conda/feedstock_root/build_artifacts/ffmpeg_1666357487580/_build_env/bin/x86_64-conda-linux-gnu-nm --ar=/home/conda/feedstock_root/build_artifacts/ffmpeg_1666357487580/_build_env/bin/x86_64-conda-linux-gnu-ar --disable-doc --disable-openssl --enable-demuxer=dash --enable-hardcoded-tables --enable-libfreetype --enable-libfontconfig --enable-libopenh264 --enable-gnutls --enable-libmp3lame --enable-libvpx --enable-pthreads --enable-vaapi --enable-gpl --enable-libx264 --enable-libx265 --enable-libaom --enable-libsvtav1 --enable-libxml2 --enable-pic --enable-shared --disable-static --enable-version3 --enable-zlib --pkg-config=/home/conda/feedstock_root/build_artifacts/ffmpeg_1666357487580/_build_env/bin/pkg-config\n",
      "  libavutil      57. 28.100 / 57. 28.100\n",
      "  libavcodec     59. 37.100 / 59. 37.100\n",
      "  libavformat    59. 27.100 / 59. 27.100\n",
      "  libavdevice    59.  7.100 / 59.  7.100\n",
      "  libavfilter     8. 44.100 /  8. 44.100\n",
      "  libswscale      6.  7.100 /  6.  7.100\n",
      "  libswresample   4.  7.100 /  4.  7.100\n",
      "  libpostproc    56.  6.100 / 56.  6.100\n",
      "[image2 @ 0x56136be2b640] Pattern type 'glob_sequence' is deprecated: use pattern_type 'glob' instead\n",
      "Input #0, image2, from '/home/irmak/Workspace/Holo-Bot/extracted_data/tofu_picking/eval/demonstration_small_mid_size/visualization/%*.png':\n",
      "  Duration: 00:00:04.84, start: 0.000000, bitrate: N/A\n",
      "  Stream #0:0: Video: png, rgba(pc), 2000x2000 [SAR 3937:3937 DAR 1:1], 25 fps, 25 tbr, 25 tbn\n",
      "Stream mapping:\n",
      "  Stream #0:0 -> #0:0 (png (native) -> h264 (libx264))\n",
      "Press [q] to stop, [?] for help\n"
     ]
    },
    {
     "name": "stdout",
     "output_type": "stream",
     "text": [
      "dumping video in root: /home/irmak/Workspace/Holo-Bot/extracted_data/tofu_picking/eval/demonstration_small_mid_size\n"
     ]
    },
    {
     "name": "stderr",
     "output_type": "stream",
     "text": [
      "[libx264 @ 0x56136be36600] using SAR=1/1\n",
      "[libx264 @ 0x56136be36600] using cpu capabilities: MMX2 SSE2Fast SSSE3 SSE4.2 AVX FMA3 BMI2 AVX2\n",
      "[libx264 @ 0x56136be36600] profile High 4:4:4 Predictive, level 4.0, 4:4:4, 8-bit\n",
      "[libx264 @ 0x56136be36600] 264 - core 164 r3095 baee400 - H.264/MPEG-4 AVC codec - Copyleft 2003-2022 - http://www.videolan.org/x264.html - options: cabac=1 ref=3 deblock=1:0:0 analyse=0x3:0x113 me=hex subme=7 psy=1 psy_rd=1.00:0.00 mixed_ref=1 me_range=16 chroma_me=1 trellis=1 8x8dct=1 cqm=0 deadzone=21,11 fast_pskip=1 chroma_qp_offset=4 threads=22 lookahead_threads=3 sliced_threads=0 nr=0 decimate=1 interlaced=0 bluray_compat=0 constrained_intra=0 bframes=3 b_pyramid=2 b_adapt=1 b_bias=0 direct=1 weightb=1 open_gop=0 weightp=2 keyint=250 keyint_min=10 scenecut=40 intra_refresh=0 rc_lookahead=40 rc=crf mbtree=1 crf=23.0 qcomp=0.60 qpmin=0 qpmax=69 qpstep=4 ip_ratio=1.40 aq=1:1.00\n",
      "Output #0, mp4, to '/home/irmak/Workspace/Holo-Bot/extracted_data/tofu_picking/eval/demonstration_small_mid_size/visualization_0.mp4':\n",
      "  Metadata:\n",
      "    encoder         : Lavf59.27.100\n",
      "  Stream #0:0: Video: h264 (avc1 / 0x31637661), yuv444p(tv, progressive), 2000x720 [SAR 1:1 DAR 25:9], q=2-31, 10 fps, 10240 tbn\n",
      "    Metadata:\n",
      "      encoder         : Lavc59.37.100 libx264\n",
      "    Side data:\n",
      "      cpb: bitrate max/min/avg: 0/0/0 buffer size: 0 vbv_delay: N/A\n",
      "frame=  121 fps= 89 q=-1.0 Lsize=    3134kB time=00:00:11.80 bitrate=2175.4kbits/s speed=8.73x    \n",
      "video:3131kB audio:0kB subtitle:0kB other streams:0kB global headers:0kB muxing overhead: 0.074134%\n",
      "[libx264 @ 0x56136be36600] frame I:1     Avg QP:22.97  size: 51102\n",
      "[libx264 @ 0x56136be36600] frame P:30    Avg QP:20.30  size: 43773\n",
      "[libx264 @ 0x56136be36600] frame B:90    Avg QP:21.88  size: 20460\n",
      "[libx264 @ 0x56136be36600] consecutive B-frames:  0.8%  0.0%  0.0% 99.2%\n",
      "[libx264 @ 0x56136be36600] mb I  I16..4: 27.3% 44.4% 28.4%\n",
      "[libx264 @ 0x56136be36600] mb P  I16..4:  2.1% 22.8%  0.8%  P16..4: 22.8% 11.7%  6.2%  0.0%  0.0%    skip:33.7%\n",
      "[libx264 @ 0x56136be36600] mb B  I16..4:  0.7% 10.7%  0.1%  B16..8: 24.8%  5.5%  1.3%  direct: 4.7%  skip:52.2%  L0:47.6% L1:43.9% BI: 8.5%\n",
      "[libx264 @ 0x56136be36600] 8x8 transform intra:88.8% inter:85.1%\n",
      "[libx264 @ 0x56136be36600] coded y,u,v intra: 72.8% 37.5% 30.9% inter: 20.8% 12.6% 9.7%\n",
      "[libx264 @ 0x56136be36600] i16 v,h,dc,p: 29% 28% 23% 19%\n",
      "[libx264 @ 0x56136be36600] i8 v,h,dc,ddl,ddr,vr,hd,vl,hu: 12% 21% 53%  3%  2%  2%  2%  2%  4%\n",
      "[libx264 @ 0x56136be36600] i4 v,h,dc,ddl,ddr,vr,hd,vl,hu: 33% 32% 14%  3%  3%  3%  4%  3%  4%\n",
      "[libx264 @ 0x56136be36600] Weighted P-Frames: Y:0.0% UV:0.0%\n",
      "[libx264 @ 0x56136be36600] ref P L0: 38.3% 10.5% 31.2% 20.0%\n",
      "[libx264 @ 0x56136be36600] ref B L0: 70.2% 23.6%  6.2%\n",
      "[libx264 @ 0x56136be36600] ref B L1: 88.4% 11.6%\n",
      "[libx264 @ 0x56136be36600] kb/s:2119.45\n",
      "ffmpeg version 5.1.2 Copyright (c) 2000-2022 the FFmpeg developers\n",
      "  built with gcc 10.4.0 (conda-forge gcc 10.4.0-18)\n",
      "  configuration: --prefix=/home/irmak/miniconda3/envs/tactile_learning --cc=/home/conda/feedstock_root/build_artifacts/ffmpeg_1666357487580/_build_env/bin/x86_64-conda-linux-gnu-cc --cxx=/home/conda/feedstock_root/build_artifacts/ffmpeg_1666357487580/_build_env/bin/x86_64-conda-linux-gnu-c++ --nm=/home/conda/feedstock_root/build_artifacts/ffmpeg_1666357487580/_build_env/bin/x86_64-conda-linux-gnu-nm --ar=/home/conda/feedstock_root/build_artifacts/ffmpeg_1666357487580/_build_env/bin/x86_64-conda-linux-gnu-ar --disable-doc --disable-openssl --enable-demuxer=dash --enable-hardcoded-tables --enable-libfreetype --enable-libfontconfig --enable-libopenh264 --enable-gnutls --enable-libmp3lame --enable-libvpx --enable-pthreads --enable-vaapi --enable-gpl --enable-libx264 --enable-libx265 --enable-libaom --enable-libsvtav1 --enable-libxml2 --enable-pic --enable-shared --disable-static --enable-version3 --enable-zlib --pkg-config=/home/conda/feedstock_root/build_artifacts/ffmpeg_1666357487580/_build_env/bin/pkg-config\n",
      "  libavutil      57. 28.100 / 57. 28.100\n",
      "  libavcodec     59. 37.100 / 59. 37.100\n",
      "  libavformat    59. 27.100 / 59. 27.100\n",
      "  libavdevice    59.  7.100 / 59.  7.100\n",
      "  libavfilter     8. 44.100 /  8. 44.100\n",
      "  libswscale      6.  7.100 /  6.  7.100\n",
      "  libswresample   4.  7.100 /  4.  7.100\n",
      "  libpostproc    56.  6.100 / 56.  6.100\n",
      "[image2 @ 0x56154d325640] Pattern type 'glob_sequence' is deprecated: use pattern_type 'glob' instead\n",
      "Input #0, image2, from '/home/irmak/Workspace/Holo-Bot/extracted_data/tofu_picking/eval/demonstration_small_size/visualization/%*.png':\n",
      "  Duration: 00:00:06.16, start: 0.000000, bitrate: N/A\n",
      "  Stream #0:0: Video: png, rgba(pc), 2000x2000 [SAR 3937:3937 DAR 1:1], 25 fps, 25 tbr, 25 tbn\n",
      "Stream mapping:\n",
      "  Stream #0:0 -> #0:0 (png (native) -> h264 (libx264))\n",
      "Press [q] to stop, [?] for help\n"
     ]
    },
    {
     "name": "stdout",
     "output_type": "stream",
     "text": [
      "dumping video in root: /home/irmak/Workspace/Holo-Bot/extracted_data/tofu_picking/eval/demonstration_small_size\n"
     ]
    },
    {
     "name": "stderr",
     "output_type": "stream",
     "text": [
      "[libx264 @ 0x56154d331000] using SAR=1/1\n",
      "[libx264 @ 0x56154d331000] using cpu capabilities: MMX2 SSE2Fast SSSE3 SSE4.2 AVX FMA3 BMI2 AVX2\n",
      "[libx264 @ 0x56154d331000] profile High 4:4:4 Predictive, level 4.0, 4:4:4, 8-bit\n",
      "[libx264 @ 0x56154d331000] 264 - core 164 r3095 baee400 - H.264/MPEG-4 AVC codec - Copyleft 2003-2022 - http://www.videolan.org/x264.html - options: cabac=1 ref=3 deblock=1:0:0 analyse=0x3:0x113 me=hex subme=7 psy=1 psy_rd=1.00:0.00 mixed_ref=1 me_range=16 chroma_me=1 trellis=1 8x8dct=1 cqm=0 deadzone=21,11 fast_pskip=1 chroma_qp_offset=4 threads=22 lookahead_threads=3 sliced_threads=0 nr=0 decimate=1 interlaced=0 bluray_compat=0 constrained_intra=0 bframes=3 b_pyramid=2 b_adapt=1 b_bias=0 direct=1 weightb=1 open_gop=0 weightp=2 keyint=250 keyint_min=10 scenecut=40 intra_refresh=0 rc_lookahead=40 rc=crf mbtree=1 crf=23.0 qcomp=0.60 qpmin=0 qpmax=69 qpstep=4 ip_ratio=1.40 aq=1:1.00\n",
      "Output #0, mp4, to '/home/irmak/Workspace/Holo-Bot/extracted_data/tofu_picking/eval/demonstration_small_size/visualization_0.mp4':\n",
      "  Metadata:\n",
      "    encoder         : Lavf59.27.100\n",
      "  Stream #0:0: Video: h264 (avc1 / 0x31637661), yuv444p(tv, progressive), 2000x720 [SAR 1:1 DAR 25:9], q=2-31, 10 fps, 10240 tbn\n",
      "    Metadata:\n",
      "      encoder         : Lavc59.37.100 libx264\n",
      "    Side data:\n",
      "      cpb: bitrate max/min/avg: 0/0/0 buffer size: 0 vbv_delay: N/A\n",
      "frame=  154 fps= 96 q=-1.0 Lsize=    3866kB time=00:00:15.10 bitrate=2097.6kbits/s speed=9.41x    \n",
      "video:3864kB audio:0kB subtitle:0kB other streams:0kB global headers:0kB muxing overhead: 0.069885%\n",
      "[libx264 @ 0x56154d331000] frame I:1     Avg QP:22.65  size: 50812\n",
      "[libx264 @ 0x56154d331000] frame P:39    Avg QP:20.37  size: 43313\n",
      "[libx264 @ 0x56154d331000] frame B:114   Avg QP:21.89  size: 19437\n",
      "[libx264 @ 0x56154d331000] consecutive B-frames:  0.6%  1.3%  1.9% 96.1%\n",
      "[libx264 @ 0x56154d331000] mb I  I16..4: 25.4% 46.0% 28.6%\n",
      "[libx264 @ 0x56154d331000] mb P  I16..4:  2.2% 23.4%  0.8%  P16..4: 22.5% 11.3%  6.4%  0.0%  0.0%    skip:33.3%\n",
      "[libx264 @ 0x56154d331000] mb B  I16..4:  0.7% 10.1%  0.1%  B16..8: 24.8%  5.4%  1.3%  direct: 4.4%  skip:53.2%  L0:47.2% L1:45.4% BI: 7.4%\n",
      "[libx264 @ 0x56154d331000] 8x8 transform intra:88.7% inter:85.2%\n",
      "[libx264 @ 0x56154d331000] coded y,u,v intra: 72.5% 37.1% 30.1% inter: 19.8% 12.2% 9.2%\n",
      "[libx264 @ 0x56154d331000] i16 v,h,dc,p: 29% 28% 24% 19%\n",
      "[libx264 @ 0x56154d331000] i8 v,h,dc,ddl,ddr,vr,hd,vl,hu: 12% 22% 51%  3%  2%  2%  2%  2%  4%\n",
      "[libx264 @ 0x56154d331000] i4 v,h,dc,ddl,ddr,vr,hd,vl,hu: 32% 29% 15%  4%  4%  4%  5%  4%  4%\n",
      "[libx264 @ 0x56154d331000] Weighted P-Frames: Y:0.0% UV:0.0%\n",
      "[libx264 @ 0x56154d331000] ref P L0: 37.9% 10.4% 32.1% 19.6%\n",
      "[libx264 @ 0x56154d331000] ref B L0: 68.6% 24.5%  6.9%\n",
      "[libx264 @ 0x56154d331000] ref B L1: 88.4% 11.6%\n",
      "[libx264 @ 0x56154d331000] kb/s:2054.95\n",
      "ffmpeg version 5.1.2 Copyright (c) 2000-2022 the FFmpeg developers\n",
      "  built with gcc 10.4.0 (conda-forge gcc 10.4.0-18)\n",
      "  configuration: --prefix=/home/irmak/miniconda3/envs/tactile_learning --cc=/home/conda/feedstock_root/build_artifacts/ffmpeg_1666357487580/_build_env/bin/x86_64-conda-linux-gnu-cc --cxx=/home/conda/feedstock_root/build_artifacts/ffmpeg_1666357487580/_build_env/bin/x86_64-conda-linux-gnu-c++ --nm=/home/conda/feedstock_root/build_artifacts/ffmpeg_1666357487580/_build_env/bin/x86_64-conda-linux-gnu-nm --ar=/home/conda/feedstock_root/build_artifacts/ffmpeg_1666357487580/_build_env/bin/x86_64-conda-linux-gnu-ar --disable-doc --disable-openssl --enable-demuxer=dash --enable-hardcoded-tables --enable-libfreetype --enable-libfontconfig --enable-libopenh264 --enable-gnutls --enable-libmp3lame --enable-libvpx --enable-pthreads --enable-vaapi --enable-gpl --enable-libx264 --enable-libx265 --enable-libaom --enable-libsvtav1 --enable-libxml2 --enable-pic --enable-shared --disable-static --enable-version3 --enable-zlib --pkg-config=/home/conda/feedstock_root/build_artifacts/ffmpeg_1666357487580/_build_env/bin/pkg-config\n",
      "  libavutil      57. 28.100 / 57. 28.100\n",
      "  libavcodec     59. 37.100 / 59. 37.100\n",
      "  libavformat    59. 27.100 / 59. 27.100\n",
      "  libavdevice    59.  7.100 / 59.  7.100\n",
      "  libavfilter     8. 44.100 /  8. 44.100\n",
      "  libswscale      6.  7.100 /  6.  7.100\n",
      "  libswresample   4.  7.100 /  4.  7.100\n",
      "  libpostproc    56.  6.100 / 56.  6.100\n",
      "[image2 @ 0x560fc8c4a640] Pattern type 'glob_sequence' is deprecated: use pattern_type 'glob' instead\n",
      "Input #0, image2, from '/home/irmak/Workspace/Holo-Bot/extracted_data/tofu_picking/eval/demonstration_mid_size/visualization/%*.png':\n",
      "  Duration: 00:00:07.96, start: 0.000000, bitrate: N/A\n",
      "  Stream #0:0: Video: png, rgba(pc), 2000x2000 [SAR 3937:3937 DAR 1:1], 25 fps, 25 tbr, 25 tbn\n",
      "Stream mapping:\n",
      "  Stream #0:0 -> #0:0 (png (native) -> h264 (libx264))\n",
      "Press [q] to stop, [?] for help\n"
     ]
    },
    {
     "name": "stdout",
     "output_type": "stream",
     "text": [
      "dumping video in root: /home/irmak/Workspace/Holo-Bot/extracted_data/tofu_picking/eval/demonstration_mid_size\n"
     ]
    },
    {
     "name": "stderr",
     "output_type": "stream",
     "text": [
      "[libx264 @ 0x560fc8c56f80] using SAR=1/1\n",
      "[libx264 @ 0x560fc8c56f80] using cpu capabilities: MMX2 SSE2Fast SSSE3 SSE4.2 AVX FMA3 BMI2 AVX2\n",
      "[libx264 @ 0x560fc8c56f80] profile High 4:4:4 Predictive, level 4.0, 4:4:4, 8-bit\n",
      "[libx264 @ 0x560fc8c56f80] 264 - core 164 r3095 baee400 - H.264/MPEG-4 AVC codec - Copyleft 2003-2022 - http://www.videolan.org/x264.html - options: cabac=1 ref=3 deblock=1:0:0 analyse=0x3:0x113 me=hex subme=7 psy=1 psy_rd=1.00:0.00 mixed_ref=1 me_range=16 chroma_me=1 trellis=1 8x8dct=1 cqm=0 deadzone=21,11 fast_pskip=1 chroma_qp_offset=4 threads=22 lookahead_threads=3 sliced_threads=0 nr=0 decimate=1 interlaced=0 bluray_compat=0 constrained_intra=0 bframes=3 b_pyramid=2 b_adapt=1 b_bias=0 direct=1 weightb=1 open_gop=0 weightp=2 keyint=250 keyint_min=10 scenecut=40 intra_refresh=0 rc_lookahead=40 rc=crf mbtree=1 crf=23.0 qcomp=0.60 qpmin=0 qpmax=69 qpstep=4 ip_ratio=1.40 aq=1:1.00\n",
      "Output #0, mp4, to '/home/irmak/Workspace/Holo-Bot/extracted_data/tofu_picking/eval/demonstration_mid_size/visualization_0.mp4':\n",
      "  Metadata:\n",
      "    encoder         : Lavf59.27.100\n",
      "  Stream #0:0: Video: h264 (avc1 / 0x31637661), yuv444p(tv, progressive), 2000x720 [SAR 1:1 DAR 25:9], q=2-31, 10 fps, 10240 tbn\n",
      "    Metadata:\n",
      "      encoder         : Lavc59.37.100 libx264\n",
      "    Side data:\n",
      "      cpb: bitrate max/min/avg: 0/0/0 buffer size: 0 vbv_delay: N/A\n",
      "frame=  199 fps=107 q=-1.0 Lsize=    4903kB time=00:00:19.60 bitrate=2049.2kbits/s speed=10.5x    \n",
      "video:4900kB audio:0kB subtitle:0kB other streams:0kB global headers:0kB muxing overhead: 0.066033%\n",
      "[libx264 @ 0x560fc8c56f80] frame I:1     Avg QP:22.70  size: 51437\n",
      "[libx264 @ 0x560fc8c56f80] frame P:50    Avg QP:20.19  size: 42710\n",
      "[libx264 @ 0x560fc8c56f80] frame B:148   Avg QP:21.90  size: 19119\n",
      "[libx264 @ 0x560fc8c56f80] consecutive B-frames:  0.5%  0.0%  3.0% 96.5%\n",
      "[libx264 @ 0x560fc8c56f80] mb I  I16..4: 27.9% 43.8% 28.3%\n",
      "[libx264 @ 0x560fc8c56f80] mb P  I16..4:  2.5% 22.6%  0.7%  P16..4: 23.7% 11.5%  6.3%  0.0%  0.0%    skip:32.8%\n",
      "[libx264 @ 0x560fc8c56f80] mb B  I16..4:  0.8%  9.8%  0.1%  B16..8: 25.2%  5.5%  1.3%  direct: 4.5%  skip:52.8%  L0:47.0% L1:45.2% BI: 7.8%\n",
      "[libx264 @ 0x560fc8c56f80] 8x8 transform intra:88.3% inter:84.9%\n",
      "[libx264 @ 0x560fc8c56f80] coded y,u,v intra: 70.5% 35.9% 29.7% inter: 20.1% 12.6% 9.9%\n",
      "[libx264 @ 0x560fc8c56f80] i16 v,h,dc,p: 26% 27% 26% 22%\n",
      "[libx264 @ 0x560fc8c56f80] i8 v,h,dc,ddl,ddr,vr,hd,vl,hu: 12% 21% 52%  3%  2%  2%  2%  2%  4%\n",
      "[libx264 @ 0x560fc8c56f80] i4 v,h,dc,ddl,ddr,vr,hd,vl,hu: 31% 30% 15%  4%  4%  4%  5%  3%  4%\n",
      "[libx264 @ 0x560fc8c56f80] Weighted P-Frames: Y:0.0% UV:0.0%\n",
      "[libx264 @ 0x560fc8c56f80] ref P L0: 36.1% 10.9% 32.6% 20.4%\n",
      "[libx264 @ 0x560fc8c56f80] ref B L0: 69.2% 24.1%  6.8%\n",
      "[libx264 @ 0x560fc8c56f80] ref B L1: 88.2% 11.8%\n",
      "[libx264 @ 0x560fc8c56f80] kb/s:2016.69\n",
      "ffmpeg version 5.1.2 Copyright (c) 2000-2022 the FFmpeg developers\n",
      "  built with gcc 10.4.0 (conda-forge gcc 10.4.0-18)\n",
      "  configuration: --prefix=/home/irmak/miniconda3/envs/tactile_learning --cc=/home/conda/feedstock_root/build_artifacts/ffmpeg_1666357487580/_build_env/bin/x86_64-conda-linux-gnu-cc --cxx=/home/conda/feedstock_root/build_artifacts/ffmpeg_1666357487580/_build_env/bin/x86_64-conda-linux-gnu-c++ --nm=/home/conda/feedstock_root/build_artifacts/ffmpeg_1666357487580/_build_env/bin/x86_64-conda-linux-gnu-nm --ar=/home/conda/feedstock_root/build_artifacts/ffmpeg_1666357487580/_build_env/bin/x86_64-conda-linux-gnu-ar --disable-doc --disable-openssl --enable-demuxer=dash --enable-hardcoded-tables --enable-libfreetype --enable-libfontconfig --enable-libopenh264 --enable-gnutls --enable-libmp3lame --enable-libvpx --enable-pthreads --enable-vaapi --enable-gpl --enable-libx264 --enable-libx265 --enable-libaom --enable-libsvtav1 --enable-libxml2 --enable-pic --enable-shared --disable-static --enable-version3 --enable-zlib --pkg-config=/home/conda/feedstock_root/build_artifacts/ffmpeg_1666357487580/_build_env/bin/pkg-config\n",
      "  libavutil      57. 28.100 / 57. 28.100\n",
      "  libavcodec     59. 37.100 / 59. 37.100\n",
      "  libavformat    59. 27.100 / 59. 27.100\n",
      "  libavdevice    59.  7.100 / 59.  7.100\n",
      "  libavfilter     8. 44.100 /  8. 44.100\n",
      "  libswscale      6.  7.100 /  6.  7.100\n",
      "  libswresample   4.  7.100 /  4.  7.100\n",
      "  libpostproc    56.  6.100 / 56.  6.100\n",
      "[image2 @ 0x563d19888640] Pattern type 'glob_sequence' is deprecated: use pattern_type 'glob' instead\n",
      "Input #0, image2, from '/home/irmak/Workspace/Holo-Bot/extracted_data/tofu_picking/eval/demonstration_smallest_size/visualization/%*.png':\n",
      "  Duration: 00:00:06.72, start: 0.000000, bitrate: N/A\n",
      "  Stream #0:0: Video: png, rgba(pc), 2000x2000 [SAR 3937:3937 DAR 1:1], 25 fps, 25 tbr, 25 tbn\n",
      "Stream mapping:\n",
      "  Stream #0:0 -> #0:0 (png (native) -> h264 (libx264))\n",
      "Press [q] to stop, [?] for help\n"
     ]
    },
    {
     "name": "stdout",
     "output_type": "stream",
     "text": [
      "dumping video in root: /home/irmak/Workspace/Holo-Bot/extracted_data/tofu_picking/eval/demonstration_smallest_size\n"
     ]
    },
    {
     "name": "stderr",
     "output_type": "stream",
     "text": [
      "[libx264 @ 0x563d19894140] using SAR=1/1\n",
      "[libx264 @ 0x563d19894140] using cpu capabilities: MMX2 SSE2Fast SSSE3 SSE4.2 AVX FMA3 BMI2 AVX2\n",
      "[libx264 @ 0x563d19894140] profile High 4:4:4 Predictive, level 4.0, 4:4:4, 8-bit\n",
      "[libx264 @ 0x563d19894140] 264 - core 164 r3095 baee400 - H.264/MPEG-4 AVC codec - Copyleft 2003-2022 - http://www.videolan.org/x264.html - options: cabac=1 ref=3 deblock=1:0:0 analyse=0x3:0x113 me=hex subme=7 psy=1 psy_rd=1.00:0.00 mixed_ref=1 me_range=16 chroma_me=1 trellis=1 8x8dct=1 cqm=0 deadzone=21,11 fast_pskip=1 chroma_qp_offset=4 threads=22 lookahead_threads=3 sliced_threads=0 nr=0 decimate=1 interlaced=0 bluray_compat=0 constrained_intra=0 bframes=3 b_pyramid=2 b_adapt=1 b_bias=0 direct=1 weightb=1 open_gop=0 weightp=2 keyint=250 keyint_min=10 scenecut=40 intra_refresh=0 rc_lookahead=40 rc=crf mbtree=1 crf=23.0 qcomp=0.60 qpmin=0 qpmax=69 qpstep=4 ip_ratio=1.40 aq=1:1.00\n",
      "Output #0, mp4, to '/home/irmak/Workspace/Holo-Bot/extracted_data/tofu_picking/eval/demonstration_smallest_size/visualization_0.mp4':\n",
      "  Metadata:\n",
      "    encoder         : Lavf59.27.100\n",
      "  Stream #0:0: Video: h264 (avc1 / 0x31637661), yuv444p(tv, progressive), 2000x720 [SAR 1:1 DAR 25:9], q=2-31, 10 fps, 10240 tbn\n",
      "    Metadata:\n",
      "      encoder         : Lavc59.37.100 libx264\n",
      "    Side data:\n",
      "      cpb: bitrate max/min/avg: 0/0/0 buffer size: 0 vbv_delay: N/A\n",
      "frame=  168 fps= 99 q=-1.0 Lsize=    4319kB time=00:00:16.50 bitrate=2144.4kbits/s speed=9.74x    \n",
      "video:4316kB audio:0kB subtitle:0kB other streams:0kB global headers:0kB muxing overhead: 0.066721%\n",
      "[libx264 @ 0x563d19894140] frame I:1     Avg QP:22.88  size: 51105\n",
      "[libx264 @ 0x563d19894140] frame P:43    Avg QP:20.35  size: 43064\n",
      "[libx264 @ 0x563d19894140] frame B:124   Avg QP:21.90  size: 20293\n",
      "[libx264 @ 0x563d19894140] consecutive B-frames:  0.6%  2.4%  1.8% 95.2%\n",
      "[libx264 @ 0x563d19894140] mb I  I16..4: 27.8% 43.7% 28.6%\n",
      "[libx264 @ 0x563d19894140] mb P  I16..4:  3.1% 24.6%  0.7%  P16..4: 22.5% 11.2%  6.7%  0.0%  0.0%    skip:31.3%\n",
      "[libx264 @ 0x563d19894140] mb B  I16..4:  1.1% 11.2%  0.2%  B16..8: 25.1%  5.9%  1.6%  direct: 4.4%  skip:50.6%  L0:49.5% L1:43.3% BI: 7.2%\n",
      "[libx264 @ 0x563d19894140] 8x8 transform intra:86.9% inter:85.0%\n",
      "[libx264 @ 0x563d19894140] coded y,u,v intra: 68.4% 35.2% 29.3% inter: 19.8% 12.9% 10.7%\n",
      "[libx264 @ 0x563d19894140] i16 v,h,dc,p: 28% 28% 24% 20%\n",
      "[libx264 @ 0x563d19894140] i8 v,h,dc,ddl,ddr,vr,hd,vl,hu: 14% 22% 49%  3%  2%  2%  2%  3%  4%\n",
      "[libx264 @ 0x563d19894140] i4 v,h,dc,ddl,ddr,vr,hd,vl,hu: 32% 28% 17%  3%  4%  4%  5%  3%  4%\n",
      "[libx264 @ 0x563d19894140] Weighted P-Frames: Y:0.0% UV:0.0%\n",
      "[libx264 @ 0x563d19894140] ref P L0: 37.4%  8.9% 32.7% 21.0%\n",
      "[libx264 @ 0x563d19894140] ref B L0: 66.9% 25.4%  7.7%\n",
      "[libx264 @ 0x563d19894140] ref B L1: 88.3% 11.7%\n",
      "[libx264 @ 0x563d19894140] kb/s:2104.38\n",
      "ffmpeg version 5.1.2 Copyright (c) 2000-2022 the FFmpeg developers\n",
      "  built with gcc 10.4.0 (conda-forge gcc 10.4.0-18)\n",
      "  configuration: --prefix=/home/irmak/miniconda3/envs/tactile_learning --cc=/home/conda/feedstock_root/build_artifacts/ffmpeg_1666357487580/_build_env/bin/x86_64-conda-linux-gnu-cc --cxx=/home/conda/feedstock_root/build_artifacts/ffmpeg_1666357487580/_build_env/bin/x86_64-conda-linux-gnu-c++ --nm=/home/conda/feedstock_root/build_artifacts/ffmpeg_1666357487580/_build_env/bin/x86_64-conda-linux-gnu-nm --ar=/home/conda/feedstock_root/build_artifacts/ffmpeg_1666357487580/_build_env/bin/x86_64-conda-linux-gnu-ar --disable-doc --disable-openssl --enable-demuxer=dash --enable-hardcoded-tables --enable-libfreetype --enable-libfontconfig --enable-libopenh264 --enable-gnutls --enable-libmp3lame --enable-libvpx --enable-pthreads --enable-vaapi --enable-gpl --enable-libx264 --enable-libx265 --enable-libaom --enable-libsvtav1 --enable-libxml2 --enable-pic --enable-shared --disable-static --enable-version3 --enable-zlib --pkg-config=/home/conda/feedstock_root/build_artifacts/ffmpeg_1666357487580/_build_env/bin/pkg-config\n",
      "  libavutil      57. 28.100 / 57. 28.100\n",
      "  libavcodec     59. 37.100 / 59. 37.100\n",
      "  libavformat    59. 27.100 / 59. 27.100\n",
      "  libavdevice    59.  7.100 / 59.  7.100\n",
      "  libavfilter     8. 44.100 /  8. 44.100\n",
      "  libswscale      6.  7.100 /  6.  7.100\n",
      "  libswresample   4.  7.100 /  4.  7.100\n",
      "  libpostproc    56.  6.100 / 56.  6.100\n",
      "[image2 @ 0x56149d151640] Pattern type 'glob_sequence' is deprecated: use pattern_type 'glob' instead\n",
      "Input #0, image2, from '/home/irmak/Workspace/Holo-Bot/extracted_data/tofu_picking/eval/demonstration_large_mid_size/visualization/%*.png':\n",
      "  Duration: 00:00:03.96, start: 0.000000, bitrate: N/A\n",
      "  Stream #0:0: Video: png, rgba(pc), 2000x2000 [SAR 3937:3937 DAR 1:1], 25 fps, 25 tbr, 25 tbn\n",
      "Stream mapping:\n",
      "  Stream #0:0 -> #0:0 (png (native) -> h264 (libx264))\n",
      "Press [q] to stop, [?] for help\n"
     ]
    },
    {
     "name": "stdout",
     "output_type": "stream",
     "text": [
      "dumping video in root: /home/irmak/Workspace/Holo-Bot/extracted_data/tofu_picking/eval/demonstration_large_mid_size\n"
     ]
    },
    {
     "name": "stderr",
     "output_type": "stream",
     "text": [
      "[libx264 @ 0x56149d15b380] using SAR=1/1\n",
      "[libx264 @ 0x56149d15b380] using cpu capabilities: MMX2 SSE2Fast SSSE3 SSE4.2 AVX FMA3 BMI2 AVX2\n",
      "[libx264 @ 0x56149d15b380] profile High 4:4:4 Predictive, level 4.0, 4:4:4, 8-bit\n",
      "[libx264 @ 0x56149d15b380] 264 - core 164 r3095 baee400 - H.264/MPEG-4 AVC codec - Copyleft 2003-2022 - http://www.videolan.org/x264.html - options: cabac=1 ref=3 deblock=1:0:0 analyse=0x3:0x113 me=hex subme=7 psy=1 psy_rd=1.00:0.00 mixed_ref=1 me_range=16 chroma_me=1 trellis=1 8x8dct=1 cqm=0 deadzone=21,11 fast_pskip=1 chroma_qp_offset=4 threads=22 lookahead_threads=3 sliced_threads=0 nr=0 decimate=1 interlaced=0 bluray_compat=0 constrained_intra=0 bframes=3 b_pyramid=2 b_adapt=1 b_bias=0 direct=1 weightb=1 open_gop=0 weightp=2 keyint=250 keyint_min=10 scenecut=40 intra_refresh=0 rc_lookahead=40 rc=crf mbtree=1 crf=23.0 qcomp=0.60 qpmin=0 qpmax=69 qpstep=4 ip_ratio=1.40 aq=1:1.00\n",
      "Output #0, mp4, to '/home/irmak/Workspace/Holo-Bot/extracted_data/tofu_picking/eval/demonstration_large_mid_size/visualization_0.mp4':\n",
      "  Metadata:\n",
      "    encoder         : Lavf59.27.100\n",
      "  Stream #0:0: Video: h264 (avc1 / 0x31637661), yuv444p(tv, progressive), 2000x720 [SAR 1:1 DAR 25:9], q=2-31, 10 fps, 10240 tbn\n",
      "    Metadata:\n",
      "      encoder         : Lavc59.37.100 libx264\n",
      "    Side data:\n",
      "      cpb: bitrate max/min/avg: 0/0/0 buffer size: 0 vbv_delay: N/A\n",
      "frame=   99 fps= 80 q=-1.0 Lsize=    2295kB time=00:00:09.60 bitrate=1958.2kbits/s speed=7.76x    \n",
      "video:2293kB audio:0kB subtitle:0kB other streams:0kB global headers:0kB muxing overhead: 0.088805%\n",
      "[libx264 @ 0x56149d15b380] frame I:1     Avg QP:23.00  size: 52107\n",
      "[libx264 @ 0x56149d15b380] frame P:26    Avg QP:20.35  size: 40334\n",
      "[libx264 @ 0x56149d15b380] frame B:72    Avg QP:21.67  size: 17310\n",
      "[libx264 @ 0x56149d15b380] consecutive B-frames:  3.0%  0.0%  0.0% 97.0%\n",
      "[libx264 @ 0x56149d15b380] mb I  I16..4: 27.7% 43.9% 28.5%\n",
      "[libx264 @ 0x56149d15b380] mb P  I16..4:  2.6% 22.2%  0.9%  P16..4: 23.2% 10.7%  5.7%  0.0%  0.0%    skip:34.7%\n",
      "[libx264 @ 0x56149d15b380] mb B  I16..4:  0.8%  9.2%  0.1%  B16..8: 23.9%  4.7%  1.1%  direct: 4.1%  skip:56.1%  L0:45.8% L1:47.1% BI: 7.1%\n",
      "[libx264 @ 0x56149d15b380] 8x8 transform intra:85.7% inter:86.2%\n",
      "[libx264 @ 0x56149d15b380] coded y,u,v intra: 67.7% 34.1% 28.9% inter: 18.2% 11.5% 9.0%\n",
      "[libx264 @ 0x56149d15b380] i16 v,h,dc,p: 30% 29% 22% 19%\n",
      "[libx264 @ 0x56149d15b380] i8 v,h,dc,ddl,ddr,vr,hd,vl,hu: 13% 22% 48%  3%  2%  2%  3%  3%  4%\n",
      "[libx264 @ 0x56149d15b380] i4 v,h,dc,ddl,ddr,vr,hd,vl,hu: 33% 33% 13%  3%  3%  3%  5%  3%  4%\n",
      "[libx264 @ 0x56149d15b380] Weighted P-Frames: Y:0.0% UV:0.0%\n",
      "[libx264 @ 0x56149d15b380] ref P L0: 39.6% 10.1% 30.8% 19.5%\n",
      "[libx264 @ 0x56149d15b380] ref B L0: 68.1% 24.7%  7.2%\n",
      "[libx264 @ 0x56149d15b380] ref B L1: 87.5% 12.5%\n",
      "[libx264 @ 0x56149d15b380] kb/s:1896.69\n"
     ]
    }
   ],
   "source": [
    "# Turn the images to a video and delete the directory\n",
    "video_fps = 10\n",
    "for root in roots:\n",
    "    print('dumping video in root: {}'.format(root))\n",
    "    video_path = os.path.join(root, f'visualization_{view_num}.mp4')\n",
    "    if os.path.exists(video_path):\n",
    "        os.remove(video_path)\n",
    "    viz_dir = os.path.join(root, 'visualization')\n",
    "    os.system('ffmpeg -r {} -i {}/%*.png -vf scale=2000x720,setsar=1:1 {}'.format(\n",
    "        video_fps, # fps\n",
    "        viz_dir,\n",
    "        video_path\n",
    "    ))\n"
   ]
  },
  {
   "cell_type": "code",
   "execution_count": 18,
   "metadata": {},
   "outputs": [],
   "source": [
    "# Remove the img directory\n",
    "\n",
    "for root in roots:\n",
    "    viz_dir = os.path.join(root, 'visualization')\n",
    "    shutil.rmtree(viz_dir)\n"
   ]
  },
  {
   "cell_type": "code",
   "execution_count": null,
   "metadata": {},
   "outputs": [],
   "source": []
  }
 ],
 "metadata": {
  "kernelspec": {
   "display_name": "Python 3 (ipykernel)",
   "language": "python",
   "name": "python3"
  },
  "language_info": {
   "codemirror_mode": {
    "name": "ipython",
    "version": 3
   },
   "file_extension": ".py",
   "mimetype": "text/x-python",
   "name": "python",
   "nbconvert_exporter": "python",
   "pygments_lexer": "ipython3",
   "version": "3.9.13"
  },
  "vscode": {
   "interpreter": {
    "hash": "36852de55b288c46ba617fd48cf310240e4201e2f57004cbdac030fa23152bd3"
   }
  }
 },
 "nbformat": 4,
 "nbformat_minor": 4
}
